<svg xmlns="http://www.w3.org/2000/svg" width="1400" height="900" viewBox="0 0 1400 900" role="img" aria-label="App launch preview">
  <defs>
    <linearGradient id="bg" x1="0" y1="0" x2="1" y2="1">
      <stop offset="0" stop-color="#eff7ff"/>
      <stop offset="1" stop-color="#d6e9ff"/>
    </linearGradient>
  </defs>
  <rect width="1400" height="900" fill="url(#bg)"/>
  <rect x="70" y="70" width="1260" height="760" rx="34" fill="#ffffff" stroke="#d3e4f4"/>

  <rect x="140" y="150" width="440" height="54" rx="27" fill="#1a2b3d"/>
  <rect x="140" y="225" width="360" height="18" rx="9" fill="#9ab0c4"/>
  <rect x="140" y="255" width="310" height="18" rx="9" fill="#a6bbcd"/>
  <rect x="140" y="300" width="200" height="46" rx="23" fill="#2a8bff"/>

  <rect x="140" y="390" width="520" height="330" rx="26" fill="#f4f9ff" stroke="#d3e4f4"/>
  <rect x="180" y="430" width="200" height="240" rx="26" fill="#ffffff" stroke="#d3e4f4"/>
  <rect x="420" y="430" width="200" height="240" rx="26" fill="#ffffff" stroke="#d3e4f4"/>
  <rect x="200" y="460" width="160" height="18" rx="9" fill="#a6bbcd"/>
  <rect x="440" y="460" width="140" height="18" rx="9" fill="#a6bbcd"/>

  <rect x="760" y="160" width="250" height="520" rx="34" fill="#111827"/>
  <rect x="780" y="190" width="210" height="440" rx="26" fill="#f8fbff"/>
  <rect x="1040" y="190" width="250" height="520" rx="34" fill="#111827"/>
  <rect x="1060" y="220" width="210" height="440" rx="26" fill="#f8fbff"/>
  <circle cx="885" cy="230" r="10" fill="#d3e4f4"/>
  <circle cx="1145" cy="260" r="10" fill="#d3e4f4"/>
  <rect x="800" y="260" width="160" height="14" rx="7" fill="#c2d4e6"/>
  <rect x="1080" y="290" width="160" height="14" rx="7" fill="#c2d4e6"/>
</svg>
