<svg xmlns="http://www.w3.org/2000/svg" width="1400" height="900" viewBox="0 0 1400 900" role="img" aria-label="Company landing preview">
  <defs>
    <linearGradient id="bg" x1="0" y1="0" x2="1" y2="1">
      <stop offset="0" stop-color="#eefbf7"/>
      <stop offset="1" stop-color="#d7f1e7"/>
    </linearGradient>
  </defs>
  <rect width="1400" height="900" fill="url(#bg)"/>
  <rect x="70" y="70" width="1260" height="760" rx="34" fill="#ffffff" stroke="#cfe7dd"/>

  <rect x="140" y="140" width="240" height="26" rx="13" fill="#2a7f66"/>
  <rect x="140" y="185" width="520" height="48" rx="24" fill="#1b2a26"/>
  <rect x="140" y="245" width="360" height="18" rx="9" fill="#a0bdb3"/>
  <rect x="140" y="275" width="320" height="18" rx="9" fill="#afc9bf"/>
  <rect x="140" y="320" width="200" height="44" rx="22" fill="#2a7f66"/>

  <rect x="140" y="400" width="520" height="320" rx="26" fill="#f1fbf7" stroke="#cfe7dd"/>
  <rect x="180" y="440" width="150" height="150" rx="20" fill="#ffffff" stroke="#cfe7dd"/>
  <rect x="360" y="440" width="150" height="150" rx="20" fill="#ffffff" stroke="#cfe7dd"/>
  <rect x="540" y="440" width="100" height="150" rx="20" fill="#ffffff" stroke="#cfe7dd"/>

  <rect x="760" y="160" width="520" height="520" rx="30" fill="#eef9f4" stroke="#cfe7dd"/>
  <rect x="800" y="210" width="440" height="120" rx="20" fill="#ffffff" stroke="#cfe7dd"/>
  <rect x="800" y="360" width="200" height="140" rx="18" fill="#ffffff" stroke="#cfe7dd"/>
  <rect x="1040" y="360" width="200" height="140" rx="18" fill="#ffffff" stroke="#cfe7dd"/>
  <rect x="800" y="520" width="440" height="120" rx="18" fill="#ffffff" stroke="#cfe7dd"/>
  <rect x="840" y="250" width="160" height="14" rx="7" fill="#a0bdb3"/>
  <rect x="840" y="275" width="140" height="14" rx="7" fill="#afc9bf"/>
</svg>
