<svg xmlns="http://www.w3.org/2000/svg" width="1400" height="900" viewBox="0 0 1400 900" role="img" aria-label="Event landing preview">
  <defs>
    <linearGradient id="bg" x1="0" y1="0" x2="1" y2="1">
      <stop offset="0" stop-color="#12111a"/>
      <stop offset="1" stop-color="#1d1b28"/>
    </linearGradient>
    <linearGradient id="panel" x1="0" y1="0" x2="1" y2="1">
      <stop offset="0" stop-color="#242033"/>
      <stop offset="1" stop-color="#2d2840"/>
    </linearGradient>
  </defs>
  <rect width="1400" height="900" fill="url(#bg)"/>
  <rect x="70" y="70" width="1260" height="760" rx="34" fill="url(#panel)"/>

  <rect x="140" y="140" width="240" height="26" rx="13" fill="#6f5bd6"/>
  <rect x="140" y="185" width="520" height="54" rx="27" fill="#ffffff"/>
  <rect x="140" y="255" width="360" height="18" rx="9" fill="#b9b2ea"/>
  <rect x="140" y="285" width="300" height="18" rx="9" fill="#a9a1df"/>
  <rect x="140" y="330" width="190" height="46" rx="23" fill="#6f5bd6"/>

  <rect x="140" y="420" width="520" height="300" rx="26" fill="#1b1830" stroke="#322a4f"/>
  <rect x="180" y="460" width="440" height="40" rx="12" fill="#2f2850"/>
  <rect x="180" y="520" width="200" height="140" rx="18" fill="#241f3f"/>
  <rect x="420" y="520" width="200" height="140" rx="18" fill="#241f3f"/>
  <rect x="200" y="480" width="120" height="12" rx="6" fill="#a39bdc"/>

  <rect x="760" y="160" width="520" height="520" rx="30" fill="#0f0e16" stroke="#302a48"/>
  <rect x="800" y="200" width="440" height="80" rx="18" fill="#171424"/>
  <rect x="800" y="300" width="220" height="150" rx="20" fill="#171424"/>
  <rect x="1040" y="300" width="200" height="150" rx="20" fill="#171424"/>
  <rect x="800" y="470" width="440" height="170" rx="20" fill="#171424"/>
  <circle cx="870" cy="240" r="32" fill="#6f5bd6"/>
  <rect x="930" y="230" width="140" height="14" rx="7" fill="#c7c0f3"/>
</svg>
